<mxfile host="Electron" agent="Mozilla/5.0 (Windows NT 10.0; Win64; x64) AppleWebKit/537.36 (KHTML, like Gecko) draw.io/24.7.5 Chrome/126.0.6478.183 Electron/31.3.0 Safari/537.36" version="24.7.5">
  <diagram name="Page-1" id="G3dA2alAaUZ1CmU0Suwc">
    <mxGraphModel dx="1418" dy="820" grid="1" gridSize="10" guides="1" tooltips="1" connect="1" arrows="1" fold="1" page="1" pageScale="1" pageWidth="850" pageHeight="1100" math="0" shadow="0">
      <root>
        <mxCell id="0" />
        <mxCell id="1" parent="0" />
        <mxCell id="LPsm-7sdCr6XOs-Tmbh8-1" value="START" style="verticalLabelPosition=bottom;verticalAlign=top;html=1;shape=mxgraph.flowchart.on-page_reference;" vertex="1" parent="1">
          <mxGeometry x="130" y="90" width="70" height="70" as="geometry" />
        </mxCell>
        <mxCell id="LPsm-7sdCr6XOs-Tmbh8-3" value="USER" style="shape=parallelogram;html=1;strokeWidth=2;perimeter=parallelogramPerimeter;whiteSpace=wrap;rounded=1;arcSize=12;size=0.23;" vertex="1" parent="1">
          <mxGeometry x="330" y="40" width="210" height="70" as="geometry" />
        </mxCell>
        <mxCell id="LPsm-7sdCr6XOs-Tmbh8-15" style="edgeStyle=orthogonalEdgeStyle;rounded=0;orthogonalLoop=1;jettySize=auto;html=1;exitX=1;exitY=1;exitDx=0;exitDy=0;exitPerimeter=0;entryX=0;entryY=0.5;entryDx=0;entryDy=0;" edge="1" parent="1" source="LPsm-7sdCr6XOs-Tmbh8-5" target="LPsm-7sdCr6XOs-Tmbh8-10">
          <mxGeometry relative="1" as="geometry" />
        </mxCell>
        <mxCell id="LPsm-7sdCr6XOs-Tmbh8-16" style="edgeStyle=orthogonalEdgeStyle;rounded=0;orthogonalLoop=1;jettySize=auto;html=1;exitX=1;exitY=0;exitDx=0;exitDy=0;exitPerimeter=0;entryX=0;entryY=0.5;entryDx=0;entryDy=0;" edge="1" parent="1" source="LPsm-7sdCr6XOs-Tmbh8-5" target="LPsm-7sdCr6XOs-Tmbh8-3">
          <mxGeometry relative="1" as="geometry">
            <Array as="points">
              <mxPoint x="320" y="75" />
              <mxPoint x="320" y="75" />
            </Array>
          </mxGeometry>
        </mxCell>
        <mxCell id="LPsm-7sdCr6XOs-Tmbh8-5" value="" style="strokeWidth=2;html=1;shape=mxgraph.flowchart.annotation_2;align=left;labelPosition=right;pointerEvents=1;" vertex="1" parent="1">
          <mxGeometry x="260" y="75" width="50" height="100" as="geometry" />
        </mxCell>
        <mxCell id="LPsm-7sdCr6XOs-Tmbh8-7" style="edgeStyle=orthogonalEdgeStyle;rounded=0;orthogonalLoop=1;jettySize=auto;html=1;exitX=1;exitY=0.5;exitDx=0;exitDy=0;exitPerimeter=0;entryX=0;entryY=0.5;entryDx=0;entryDy=0;entryPerimeter=0;" edge="1" parent="1" source="LPsm-7sdCr6XOs-Tmbh8-1" target="LPsm-7sdCr6XOs-Tmbh8-5">
          <mxGeometry relative="1" as="geometry" />
        </mxCell>
        <mxCell id="LPsm-7sdCr6XOs-Tmbh8-19" value="" style="edgeStyle=orthogonalEdgeStyle;rounded=0;orthogonalLoop=1;jettySize=auto;html=1;" edge="1" parent="1" source="LPsm-7sdCr6XOs-Tmbh8-10" target="LPsm-7sdCr6XOs-Tmbh8-17">
          <mxGeometry relative="1" as="geometry">
            <Array as="points">
              <mxPoint x="540" y="175" />
              <mxPoint x="540" y="175" />
            </Array>
          </mxGeometry>
        </mxCell>
        <mxCell id="LPsm-7sdCr6XOs-Tmbh8-10" value="PASS" style="shape=parallelogram;html=1;strokeWidth=2;perimeter=parallelogramPerimeter;whiteSpace=wrap;rounded=1;arcSize=12;size=0.23;" vertex="1" parent="1">
          <mxGeometry x="310" y="140" width="210" height="70" as="geometry" />
        </mxCell>
        <mxCell id="LPsm-7sdCr6XOs-Tmbh8-26" style="edgeStyle=orthogonalEdgeStyle;rounded=0;orthogonalLoop=1;jettySize=auto;html=1;exitX=0;exitY=0.5;exitDx=0;exitDy=0;exitPerimeter=0;" edge="1" parent="1" source="LPsm-7sdCr6XOs-Tmbh8-17">
          <mxGeometry relative="1" as="geometry">
            <mxPoint x="650" y="123" as="targetPoint" />
          </mxGeometry>
        </mxCell>
        <mxCell id="LPsm-7sdCr6XOs-Tmbh8-27" style="edgeStyle=orthogonalEdgeStyle;rounded=0;orthogonalLoop=1;jettySize=auto;html=1;exitX=0;exitY=0.5;exitDx=0;exitDy=0;exitPerimeter=0;entryX=0;entryY=0.5;entryDx=0;entryDy=0;" edge="1" parent="1" source="LPsm-7sdCr6XOs-Tmbh8-17" target="LPsm-7sdCr6XOs-Tmbh8-24">
          <mxGeometry relative="1" as="geometry" />
        </mxCell>
        <mxCell id="LPsm-7sdCr6XOs-Tmbh8-17" value="" style="strokeWidth=2;html=1;shape=mxgraph.flowchart.annotation_2;align=left;labelPosition=right;pointerEvents=1;direction=west;" vertex="1" parent="1">
          <mxGeometry x="550" y="70" width="80" height="105" as="geometry" />
        </mxCell>
        <mxCell id="LPsm-7sdCr6XOs-Tmbh8-29" style="edgeStyle=orthogonalEdgeStyle;rounded=0;orthogonalLoop=1;jettySize=auto;html=1;" edge="1" parent="1" source="LPsm-7sdCr6XOs-Tmbh8-24" target="LPsm-7sdCr6XOs-Tmbh8-28">
          <mxGeometry relative="1" as="geometry">
            <Array as="points">
              <mxPoint x="710" y="240" />
              <mxPoint x="710" y="240" />
            </Array>
          </mxGeometry>
        </mxCell>
        <mxCell id="LPsm-7sdCr6XOs-Tmbh8-24" value="VERIFY" style="rounded=1;whiteSpace=wrap;html=1;absoluteArcSize=1;arcSize=14;strokeWidth=2;" vertex="1" parent="1">
          <mxGeometry x="660" y="70" width="100" height="100" as="geometry" />
        </mxCell>
        <mxCell id="LPsm-7sdCr6XOs-Tmbh8-30" style="edgeStyle=orthogonalEdgeStyle;rounded=0;orthogonalLoop=1;jettySize=auto;html=1;exitX=1;exitY=0.5;exitDx=0;exitDy=0;" edge="1" parent="1" source="LPsm-7sdCr6XOs-Tmbh8-28">
          <mxGeometry relative="1" as="geometry">
            <mxPoint x="770" y="310" as="targetPoint" />
          </mxGeometry>
        </mxCell>
        <mxCell id="LPsm-7sdCr6XOs-Tmbh8-32" style="edgeStyle=orthogonalEdgeStyle;rounded=0;orthogonalLoop=1;jettySize=auto;html=1;" edge="1" parent="1" source="LPsm-7sdCr6XOs-Tmbh8-28" target="LPsm-7sdCr6XOs-Tmbh8-31">
          <mxGeometry relative="1" as="geometry" />
        </mxCell>
        <mxCell id="LPsm-7sdCr6XOs-Tmbh8-34" style="edgeStyle=orthogonalEdgeStyle;rounded=0;orthogonalLoop=1;jettySize=auto;html=1;" edge="1" parent="1" source="LPsm-7sdCr6XOs-Tmbh8-28" target="LPsm-7sdCr6XOs-Tmbh8-33">
          <mxGeometry relative="1" as="geometry" />
        </mxCell>
        <mxCell id="LPsm-7sdCr6XOs-Tmbh8-28" value="Is the credential correct?" style="rhombus;whiteSpace=wrap;html=1;" vertex="1" parent="1">
          <mxGeometry x="655" y="260" width="110" height="100" as="geometry" />
        </mxCell>
        <mxCell id="LPsm-7sdCr6XOs-Tmbh8-31" value="LOGIN SUCCESS" style="shape=parallelogram;html=1;strokeWidth=2;perimeter=parallelogramPerimeter;whiteSpace=wrap;rounded=1;arcSize=12;size=0.23;" vertex="1" parent="1">
          <mxGeometry x="635" y="420" width="150" height="80" as="geometry" />
        </mxCell>
        <mxCell id="LPsm-7sdCr6XOs-Tmbh8-35" style="edgeStyle=orthogonalEdgeStyle;rounded=0;orthogonalLoop=1;jettySize=auto;html=1;" edge="1" parent="1" source="LPsm-7sdCr6XOs-Tmbh8-33">
          <mxGeometry relative="1" as="geometry">
            <mxPoint x="230" y="130" as="targetPoint" />
          </mxGeometry>
        </mxCell>
        <mxCell id="LPsm-7sdCr6XOs-Tmbh8-33" value="LOGIN FAILED" style="shape=parallelogram;html=1;strokeWidth=2;perimeter=parallelogramPerimeter;whiteSpace=wrap;rounded=1;arcSize=12;size=0.23;" vertex="1" parent="1">
          <mxGeometry x="470" y="272.5" width="130" height="75" as="geometry" />
        </mxCell>
        <mxCell id="LPsm-7sdCr6XOs-Tmbh8-36" value="END" style="strokeWidth=2;html=1;shape=mxgraph.flowchart.start_2;whiteSpace=wrap;" vertex="1" parent="1">
          <mxGeometry x="390" y="400" width="80" height="70" as="geometry" />
        </mxCell>
        <mxCell id="LPsm-7sdCr6XOs-Tmbh8-37" style="edgeStyle=orthogonalEdgeStyle;rounded=0;orthogonalLoop=1;jettySize=auto;html=1;entryX=0.96;entryY=0.58;entryDx=0;entryDy=0;entryPerimeter=0;" edge="1" parent="1" source="LPsm-7sdCr6XOs-Tmbh8-31" target="LPsm-7sdCr6XOs-Tmbh8-36">
          <mxGeometry relative="1" as="geometry" />
        </mxCell>
        <mxCell id="LPsm-7sdCr6XOs-Tmbh8-40" style="edgeStyle=orthogonalEdgeStyle;rounded=0;orthogonalLoop=1;jettySize=auto;html=1;entryX=0;entryY=0.5;entryDx=0;entryDy=0;" edge="1" parent="1" source="LPsm-7sdCr6XOs-Tmbh8-38" target="LPsm-7sdCr6XOs-Tmbh8-39">
          <mxGeometry relative="1" as="geometry" />
        </mxCell>
        <mxCell id="LPsm-7sdCr6XOs-Tmbh8-38" value="VERIFY FUNCTION&lt;div&gt;START&lt;/div&gt;" style="strokeWidth=2;html=1;shape=mxgraph.flowchart.start_2;whiteSpace=wrap;" vertex="1" parent="1">
          <mxGeometry x="140" y="515" width="70" height="70" as="geometry" />
        </mxCell>
        <mxCell id="LPsm-7sdCr6XOs-Tmbh8-42" style="edgeStyle=orthogonalEdgeStyle;rounded=0;orthogonalLoop=1;jettySize=auto;html=1;entryX=0;entryY=0.5;entryDx=0;entryDy=0;" edge="1" parent="1" source="LPsm-7sdCr6XOs-Tmbh8-39" target="LPsm-7sdCr6XOs-Tmbh8-41">
          <mxGeometry relative="1" as="geometry" />
        </mxCell>
        <mxCell id="LPsm-7sdCr6XOs-Tmbh8-39" value="FUNCTION&lt;div&gt;ARGUMENT&lt;/div&gt;" style="shape=parallelogram;html=1;strokeWidth=2;perimeter=parallelogramPerimeter;whiteSpace=wrap;rounded=1;arcSize=12;size=0.23;" vertex="1" parent="1">
          <mxGeometry x="250" y="520" width="130" height="60" as="geometry" />
        </mxCell>
        <mxCell id="LPsm-7sdCr6XOs-Tmbh8-44" style="edgeStyle=orthogonalEdgeStyle;rounded=0;orthogonalLoop=1;jettySize=auto;html=1;" edge="1" parent="1" source="LPsm-7sdCr6XOs-Tmbh8-41">
          <mxGeometry relative="1" as="geometry">
            <mxPoint x="480" y="640" as="targetPoint" />
          </mxGeometry>
        </mxCell>
        <mxCell id="LPsm-7sdCr6XOs-Tmbh8-41" value="COMPARE WITH DATABASE" style="rounded=1;whiteSpace=wrap;html=1;absoluteArcSize=1;arcSize=14;strokeWidth=2;" vertex="1" parent="1">
          <mxGeometry x="440" y="510" width="80" height="80" as="geometry" />
        </mxCell>
        <mxCell id="LPsm-7sdCr6XOs-Tmbh8-48" style="edgeStyle=orthogonalEdgeStyle;rounded=0;orthogonalLoop=1;jettySize=auto;html=1;" edge="1" parent="1" source="LPsm-7sdCr6XOs-Tmbh8-43">
          <mxGeometry relative="1" as="geometry">
            <mxPoint x="480" y="770" as="targetPoint" />
          </mxGeometry>
        </mxCell>
        <mxCell id="LPsm-7sdCr6XOs-Tmbh8-51" value="NO" style="edgeLabel;html=1;align=center;verticalAlign=middle;resizable=0;points=[];" vertex="1" connectable="0" parent="LPsm-7sdCr6XOs-Tmbh8-48">
          <mxGeometry x="-0.279" y="-1" relative="1" as="geometry">
            <mxPoint y="3" as="offset" />
          </mxGeometry>
        </mxCell>
        <mxCell id="LPsm-7sdCr6XOs-Tmbh8-49" style="edgeStyle=orthogonalEdgeStyle;rounded=0;orthogonalLoop=1;jettySize=auto;html=1;exitX=0;exitY=0.5;exitDx=0;exitDy=0;exitPerimeter=0;" edge="1" parent="1" source="LPsm-7sdCr6XOs-Tmbh8-43" target="LPsm-7sdCr6XOs-Tmbh8-46">
          <mxGeometry relative="1" as="geometry" />
        </mxCell>
        <mxCell id="LPsm-7sdCr6XOs-Tmbh8-50" value="YES" style="edgeLabel;html=1;align=center;verticalAlign=middle;resizable=0;points=[];" vertex="1" connectable="0" parent="LPsm-7sdCr6XOs-Tmbh8-49">
          <mxGeometry x="-0.0569" y="1" relative="1" as="geometry">
            <mxPoint as="offset" />
          </mxGeometry>
        </mxCell>
        <mxCell id="LPsm-7sdCr6XOs-Tmbh8-43" value="iS IT&lt;div&gt;A MATCH?&lt;/div&gt;" style="strokeWidth=2;html=1;shape=mxgraph.flowchart.decision;whiteSpace=wrap;" vertex="1" parent="1">
          <mxGeometry x="430" y="640" width="100" height="100" as="geometry" />
        </mxCell>
        <mxCell id="LPsm-7sdCr6XOs-Tmbh8-54" value="" style="edgeStyle=orthogonalEdgeStyle;rounded=0;orthogonalLoop=1;jettySize=auto;html=1;" edge="1" parent="1" source="LPsm-7sdCr6XOs-Tmbh8-45" target="LPsm-7sdCr6XOs-Tmbh8-53">
          <mxGeometry relative="1" as="geometry" />
        </mxCell>
        <mxCell id="LPsm-7sdCr6XOs-Tmbh8-45" value="RETURN&lt;div&gt;FALSE&lt;/div&gt;" style="shape=parallelogram;html=1;strokeWidth=2;perimeter=parallelogramPerimeter;whiteSpace=wrap;rounded=1;arcSize=12;size=0.23;" vertex="1" parent="1">
          <mxGeometry x="430" y="770" width="100" height="60" as="geometry" />
        </mxCell>
        <mxCell id="LPsm-7sdCr6XOs-Tmbh8-55" style="edgeStyle=orthogonalEdgeStyle;rounded=0;orthogonalLoop=1;jettySize=auto;html=1;" edge="1" parent="1" source="LPsm-7sdCr6XOs-Tmbh8-46" target="LPsm-7sdCr6XOs-Tmbh8-53">
          <mxGeometry relative="1" as="geometry" />
        </mxCell>
        <mxCell id="LPsm-7sdCr6XOs-Tmbh8-46" value="RETURN&lt;div&gt;TRUE&lt;/div&gt;" style="shape=parallelogram;html=1;strokeWidth=2;perimeter=parallelogramPerimeter;whiteSpace=wrap;rounded=1;arcSize=12;size=0.23;" vertex="1" parent="1">
          <mxGeometry x="280" y="660" width="100" height="60" as="geometry" />
        </mxCell>
        <mxCell id="LPsm-7sdCr6XOs-Tmbh8-53" value="END OF FUNCTION" style="ellipse;whiteSpace=wrap;html=1;strokeWidth=2;rounded=1;arcSize=12;" vertex="1" parent="1">
          <mxGeometry x="290" y="760" width="80" height="80" as="geometry" />
        </mxCell>
        <mxCell id="LPsm-7sdCr6XOs-Tmbh8-57" style="edgeStyle=orthogonalEdgeStyle;rounded=0;orthogonalLoop=1;jettySize=auto;html=1;exitX=1;exitY=0.5;exitDx=0;exitDy=0;entryX=1;entryY=1;entryDx=0;entryDy=0;entryPerimeter=0;" edge="1" parent="1" source="LPsm-7sdCr6XOs-Tmbh8-3" target="LPsm-7sdCr6XOs-Tmbh8-17">
          <mxGeometry relative="1" as="geometry">
            <Array as="points">
              <mxPoint x="516" y="70" />
            </Array>
          </mxGeometry>
        </mxCell>
      </root>
    </mxGraphModel>
  </diagram>
</mxfile>
